<?xml version="1.0" encoding="iso-8859-1"?>
<!-- Generator: Adobe Illustrator 19.0.0, SVG Export Plug-In . SVG Version: 6.00 Build 0)  -->
<svg version="1.1" id="Layer_1" xmlns="http://www.w3.org/2000/svg" xmlns:xlink="http://www.w3.org/1999/xlink" x="0px" y="0px"
	 viewBox="0 0 512.001 512.001" style="enable-background:new 0 0 512.001 512.001;" xml:space="preserve">
<g>
	<g>
		<polygon points="449.035,386.886 449.035,347.223 389.54,347.223 389.54,307.56 220.972,307.56 220.972,267.897 161.477,267.897 
			161.477,228.234 101.983,228.234 101.983,188.571 4.312,188.571 4.312,203.444 87.109,203.444 87.109,243.108 146.604,243.108 
			146.604,282.771 206.098,282.771 206.098,322.434 374.667,322.434 374.667,362.097 434.161,362.097 434.161,401.76 512,401.76 
			512,386.886 		"/>
	</g>
</g>
<g>
	<g>
		<rect x="140.159" y="427.546" width="371.841" height="14.874"/>
	</g>
</g>
<g>
	<g>
		<path d="M469.08,267.897l-95.191-79.326H237.094L97.282,69.581H27.724l-1.933,1.371C14.111,79.236,7.23,92.73,7.382,107.049
			c0.152,14.318,7.32,27.663,19.174,35.698l1.35,0.914l8.342-12.313l-1.348-0.913c-7.934-5.378-12.543-13.959-12.645-23.543
			c-0.094-8.827,3.653-16.886,10.353-22.436H68.27v89.738h14.874V84.455h8.666l139.812,118.989h18.105v89.738h14.874v-89.738h74.368
			v89.738h14.874v-89.738h14.66l95.191,79.326h20.045v89.738h14.874v-89.738H512v-14.874H469.08z"/>
	</g>
</g>
<g>
	<g>
		<rect x="265.098" y="340.287" width="14.874" height="14.874"/>
	</g>
</g>
<g>
	<g>
		<rect x="294.846" y="340.287" width="14.874" height="14.874"/>
	</g>
</g>
<g>
	<g>
		<rect x="324.593" y="340.287" width="14.874" height="14.874"/>
	</g>
</g>
<g>
	<g>
		<path d="M89.993,357.693c-1.689-29.934-26.575-53.77-56.924-53.77c-11.733,0-23.015,3.55-32.675,10.302L0,314.505l8.625,12.118
			l0.341-0.243c7.098-4.961,15.432-7.583,24.102-7.583c22.357,0,40.694,17.502,42.053,39.523
			c-19.657,3.561-34.616,20.788-34.616,41.456h14.874c0-13.399,9.718-24.565,22.475-26.838l4.766-0.429
			c0.009,0,0.019-0.001,0.028-0.001v-0.002l0.485-0.044c0.895-0.08,1.71-0.12,2.49-0.12c15.036,0,27.268,12.233,27.268,27.268
			c0,11.446-7.229,21.753-17.927,25.625l-5.863,2.065l4.941,14.029l5.924-2.087c16.627-6.018,27.798-21.946,27.798-39.632
			C127.764,377.848,111.185,359.887,89.993,357.693z"/>
	</g>
</g>
<g>
</g>
<g>
</g>
<g>
</g>
<g>
</g>
<g>
</g>
<g>
</g>
<g>
</g>
<g>
</g>
<g>
</g>
<g>
</g>
<g>
</g>
<g>
</g>
<g>
</g>
<g>
</g>
<g>
</g>
</svg>
