<?xml version="1.0" encoding="iso-8859-1"?>
<!-- Generator: Adobe Illustrator 19.0.0, SVG Export Plug-In . SVG Version: 6.00 Build 0)  -->
<svg version="1.1" id="Capa_1" xmlns="http://www.w3.org/2000/svg" xmlns:xlink="http://www.w3.org/1999/xlink" x="0px" y="0px"
	 viewBox="0 0 512 512" style="enable-background:new 0 0 512 512;" xml:space="preserve">
<g>
	<g>
		<path d="M512,432.33l-23.238-18.959c-10.296,12.619-25.542,19.857-41.828,19.857h-10.744
			c-1.833-29.883-26.716-53.635-57.051-53.635h-7.076v-20.967h-94.238v20.967v29.991v23.645h-27.697
			c-1.833-29.883-26.716-53.635-57.051-53.635h-7.076v-20.967H91.764v20.967v29.991v23.645H65.066
			c-16.287,0-31.532-7.238-41.828-19.857L0,432.33c13.562,16.623,32.646,27.24,53.558,30.104c-0.864,3.235-1.33,6.631-1.33,10.134
			c0,21.692,17.647,39.341,39.34,39.341c21.692,0,39.341-17.648,39.341-39.341c0-3.221-0.398-6.35-1.132-9.349H250.25h27.576
			h104.398c-0.734,2.998-1.132,6.127-1.132,9.349c0,21.692,17.647,39.341,39.34,39.341c21.692,0,39.34-17.648,39.34-39.341
			c0-3.503-0.467-6.899-1.33-10.134C479.354,459.57,498.438,448.953,512,432.33z"/>
	</g>
</g>
<g>
	<g>
		<path d="M327.988,0.091v4.99c0,30.416,24.744,55.161,55.161,55.161h4.99V0.091H327.988z"/>
	</g>
</g>
<g>
	<g>
		<path d="M75.689,0.091v60.151h4.99c30.415,0,55.161-24.745,55.161-55.161v-4.99H75.689z"/>
	</g>
</g>
<g>
	<g>
		<path d="M383.148,90.233c-46.952,0-85.151-38.199-85.151-85.151v-4.99h-51.088v105.851c8.867,5.178,14.842,14.791,14.842,25.779
			v196.914h126.388V90.233H383.148z"/>
	</g>
</g>
<g>
	<g>
		<path d="M165.831,0.091v4.99c0,46.952-38.198,85.151-85.151,85.151h-4.99v238.403h126.388v-0.001V131.721
			c0-10.988,5.975-20.601,14.842-25.779V0.091H165.831z"/>
	</g>
</g>
<g>
</g>
<g>
</g>
<g>
</g>
<g>
</g>
<g>
</g>
<g>
</g>
<g>
</g>
<g>
</g>
<g>
</g>
<g>
</g>
<g>
</g>
<g>
</g>
<g>
</g>
<g>
</g>
<g>
</g>
</svg>
